<svg xmlns="http://www.w3.org/2000/svg" width="32" height="32" fill="black" viewBox="0 0 24 24">
  <path d="M20.52 3.48A11.88 11.88 0 0 0 12 0a12 12 0 0 0-10.5 17.94L0 24l6.27-1.65A12 12 0 1 0 20.52 3.48ZM12 22a9.89 9.89 0 0 1-5-1.37L5.07 21l1.33-2.42A10 10 0 1 1 22 12a9.92 9.92 0 0 1-10 10Zm4.37-6.41c-.23-.12-1.35-.66-1.56-.74s-.36-.11-.51.12-.59.74-.72.9-.26.17-.49.05a8.06 8.06 0 0 1-2.37-1.46A9 9 0 0 1 8.1 12c-.13-.22 0-.34.1-.46s.23-.28.34-.43a1.54 1.54 0 0 0 .22-.38.4.4 0 0 0 0-.4c-.06-.12-.51-1.22-.7-1.66s-.37-.38-.51-.39h-.43a.84.84 0 0 0-.61.28 2.54 2.54 0 0 0-.8 1.9 4.41 4.41 0 0 0 1 2.23 11.77 11.77 0 0 0 4.54 3.62 4.79 4.79 0 0 0 2.9.6 2.4 2.4 0 0 0 1.57-1.1 1.92 1.92 0 0 0 .13-1.1c-.06-.09-.22-.15-.46-.27Z"/>
</svg>
